FILE "Carnage Heart EZ (Easy Zapping) (Japan).bin" BINARY
  TRACK 01 MODE2/2352
    INDEX 01 00:00:00
  TRACK 02 AUDIO
    INDEX 00 06:43:18
    INDEX 01 06:45:18
  TRACK 03 AUDIO
    INDEX 00 08:26:30
    INDEX 01 08:28:30
